<?xml version="1.0" standalone="no"?><!DOCTYPE svg PUBLIC "-//W3C//DTD SVG 1.1//EN" "http://www.w3.org/Graphics/SVG/1.1/DTD/svg11.dtd"><svg t="1745029843646" class="icon" viewBox="0 0 1024 1024" version="1.1" xmlns="http://www.w3.org/2000/svg" p-id="22330" data-darkreader-inline-fill="" xmlns:xlink="http://www.w3.org/1999/xlink" width="200" height="200"><path d="M704 256h256c38.4 0 64-25.6 64-64V64c0-38.4-25.6-64-64-64h-256c-38.4 0-64 25.6-64 64v32H448v384H384V448c0-38.4-25.6-64-64-64H64c-38.4 0-64 25.6-64 64v128c0 38.4 25.6 64 64 64h256c38.4 0 64-25.6 64-64v-32h64v384h192v32c0 38.4 25.6 64 64 64h256c38.4 0 64-25.6 64-64v-128c0-38.4-25.6-64-64-64h-256c-38.4 0-64 25.6-64 64v32H512v-704h128V192c0 38.4 25.6 64 64 64z m0-96V64h256v128h-256v-32z m-384 320V576H64V448h256v32z m384 448V832h256v128h-256v-32z" fill="#5ED9C0" p-id="22331" data-darkreader-inline-fill="" style="--darkreader-inline-fill: var(--darkreader-background-5ed9c0, #218a7a);"></path></svg>