<?xml version="1.0" standalone="no"?><!DOCTYPE svg PUBLIC "-//W3C//DTD SVG 1.1//EN" "http://www.w3.org/Graphics/SVG/1.1/DTD/svg11.dtd"><svg t="1745169042607" class="icon" viewBox="0 0 1024 1024" version="1.1" xmlns="http://www.w3.org/2000/svg" p-id="11476" data-darkreader-inline-fill="" xmlns:xlink="http://www.w3.org/1999/xlink" width="200" height="200"><path d="M379.6 704V317.9h261.8V393H454.7v80.4h186.7v75.1H454.7v80.4h186.7V704z" p-id="11477" fill="#94EB75" data-darkreader-inline-fill="" style="--darkreader-inline-fill: var(--darkreader-background-94eb75, #437f12);"></path><path d="M130.5 959c-32.7 0-67.9-26-67.9-67.9V130.9c0-32.7 26-67.9 67.9-67.9h411.7c21.6 0 36.2 14.5 36.2 36.2s-14.5 36.2-36.2 36.2H162.1c-16.5 0-27.1 10.6-27.1 27.1v696.7c0 16.5 10.6 27.1 27.1 27.1h696.7c16.5 0 27.1-10.6 27.1-27.1l0.1-570c0-16.5-10.6-27.1-27.1-27.1H732.3c-21.6 0-36.2-14.5-36.2-36.2s14.5-36.2 36.2-36.2h158.4c32.7 0 67.9 26 67.9 67.9V891c0 19.7-6.5 36.7-18.9 49-12.3 12.3-29.3 18.9-49 18.9H130.5z" p-id="11478" fill="#94EB75" data-darkreader-inline-fill="" style="--darkreader-inline-fill: var(--darkreader-background-94eb75, #437f12);"></path></svg>