<?xml version="1.0" standalone="no"?><!DOCTYPE svg PUBLIC "-//W3C//DTD SVG 1.1//EN" "http://www.w3.org/Graphics/SVG/1.1/DTD/svg11.dtd"><svg t="1745029640367" class="icon" viewBox="0 0 1024 1024" version="1.1" xmlns="http://www.w3.org/2000/svg" p-id="16355" data-darkreader-inline-fill="" xmlns:xlink="http://www.w3.org/1999/xlink" width="200" height="200"><path d="M265.513829 463.268449L454.290785 570.955303l17.997803 10.298743-17.597852 10.098767-188.776956 107.786843L76.43691 590.952862l-16.79795-9.598828 205.874869-118.085585zM511.983743 42.51981l206.27482 117.585646-18.197779 10.398731L511.983743 277.891078 323.806713 170.404199 305.708923 160.005468 511.983743 42.51981z m434.546954 549.032979L758.053705 699.139656 569.376737 591.452801l-17.69784-10.098767 18.097791-10.398731 188.676968-107.686854 205.774881 118.085585-17.69784 10.198755z m37.595411 261.56807L777.851288 971.40642V734.735311l206.27482-118.285561v236.671109zM285.811352 734.735311l206.27482-118.285561v236.671109L285.811352 971.40642V734.735311z m452.344782-305.162749L531.881314 547.358184V313.886684l206.27482-118.385549v234.071427zM10.045014 879.117686l246.069963 141.982668c2.999634 1.899768 6.399219 2.799658 9.898791 2.799658 3.699548-0.399951 7.199121-1.899768 9.898792-4.299475l234.671354-133.983645 237.471011 135.58345c2.999634 1.899768 6.399219 2.799658 9.898792 2.799658 3.699548-0.399951 7.199121-1.899768 9.898792-4.299475L1013.922471 879.117686c6.199243-3.399585 10.098767-9.898792 9.898791-16.997925V581.354034c0.199976-7.099133-3.599561-13.698328-9.898791-16.997925L777.851288 429.572562V160.105456c0.099988-7.099133-3.699548-13.59834-9.898792-16.997925L521.882534 2.62468c-6.199243-3.499573-13.698328-3.499573-19.897571 0L256.014989 143.107531c-6.199243 3.399585-10.098767 9.898792-9.898792 16.997925v269.567094L10.045014 564.356109c-6.299231 3.299597-10.198755 9.898792-9.898791 16.997925v280.865715c-0.199976 6.999146 3.599561 13.498352 9.898791 16.897937z" p-id="16356" fill="#94EB75" data-darkreader-inline-fill="" style="--darkreader-inline-fill: var(--darkreader-background-94eb75, #437f12);"></path></svg>