<?xml version="1.0" standalone="no"?><!DOCTYPE svg PUBLIC "-//W3C//DTD SVG 1.1//EN" "http://www.w3.org/Graphics/SVG/1.1/DTD/svg11.dtd"><svg t="1745029718083" class="icon" viewBox="0 0 1311 1024" version="1.1" xmlns="http://www.w3.org/2000/svg" p-id="18343" data-darkreader-inline-fill="" xmlns:xlink="http://www.w3.org/1999/xlink" width="256.0546875" height="200"><path d="M386.375258 306.540206l270.251546 129.715464 270.251547-129.715464L656.626804 176.824742z" fill="#ACECFF" p-id="18344" data-darkreader-inline-fill="" style="--darkreader-inline-fill: var(--darkreader-background-acecff, #004e65);"></path><path d="M685.393814 74.028866l394.556701 183.818557c32.461856 16.230928 43.282474 48.692784 27.051547 75.612371-10.820619 5.410309-21.641237 16.230928-32.461856 21.641237l-394.556701 189.228866c-16.230928 10.820619-43.282474 10.820619-59.513402 0L231.45567 355.101031c-32.461856-10.820619-43.282474-48.692784-27.051546-70.202062 5.410309-10.820619 22.828866-18.870103 27.051546-21.641237l394.556701-189.228866c16.098969-10.68866 37.740206-10.68866 59.381443 0zM653.195876 967.389691L229.34433 756.519588c-22.828866-11.348454-32.197938-39.059794-20.717526-61.88866 11.348454-22.828866 39.059794-32.197938 61.88866-20.717526l382.416495 190.284536 387.694845-195.430928c22.828866-11.480412 50.540206-2.375258 62.020619 20.453609 11.480412 22.828866 2.375258 50.540206-20.453609 62.020618L653.195876 967.389691z" fill="#ACECFF" p-id="18345" data-darkreader-inline-fill="" style="--darkreader-inline-fill: var(--darkreader-background-acecff, #004e65);"></path><path d="M653.195876 760.214433L229.34433 549.34433c-22.828866-11.348454-32.197938-39.059794-20.717526-61.88866 11.348454-22.828866 39.059794-32.197938 61.88866-20.717526l382.416495 190.284536 387.694845-195.430927c22.828866-11.480412 50.540206-2.375258 62.020619 20.453608 11.480412 22.828866 2.375258 50.540206-20.453609 62.020618L653.195876 760.214433z" fill="#ACECFF" p-id="18346" data-darkreader-inline-fill="" style="--darkreader-inline-fill: var(--darkreader-background-acecff, #004e65);"></path></svg>