<?xml version="1.0" standalone="no"?><!DOCTYPE svg PUBLIC "-//W3C//DTD SVG 1.1//EN" "http://www.w3.org/Graphics/SVG/1.1/DTD/svg11.dtd"><svg t="1744129287396" class="icon" viewBox="0 0 1024 1024" version="1.1" xmlns="http://www.w3.org/2000/svg" p-id="6355" data-darkreader-inline-fill="" data-spm-anchor-id="a313x.search_index.0.i4.10e93a81MuWH0y" xmlns:xlink="http://www.w3.org/1999/xlink" width="200" height="200"><path d="M512 427.667c-33.137 0-60 26.863-60 60v226.667c0 33.137 26.863 60 60 60s60-26.863 60-60V487.667c0-33.137-26.863-60-60-60z" fill="#2a7afa" p-id="6356" data-darkreader-inline-fill="" style="--darkreader-inline-fill: var(--darkreader-background-2a7afa, #0447b2);"></path><path d="M512 309.667m-60 0a60 60 0 1 0 120 0 60 60 0 1 0-120 0Z" fill="#2a7afa" p-id="6357" data-darkreader-inline-fill="" style="--darkreader-inline-fill: var(--darkreader-text-2a7afa, #389bfa);" data-spm-anchor-id="a313x.search_index.0.i1.10e93a81MuWH0y" class=""></path><path d="M512 14C236.962 14 14 236.962 14 512s222.962 498 498 498 498-222.962 498-498S787.038 14 512 14z m0 895.955c-219.785 0-397.955-178.171-397.955-397.955S292.215 114.045 512 114.045 909.955 292.215 909.955 512 731.785 909.955 512 909.955z" fill="#2a7afa" p-id="6358" data-darkreader-inline-fill="" style="--darkreader-inline-fill: var(--darkreader-background-2a7afa, #0447b2);"></path></svg>