<?xml version="1.0" standalone="no"?><!DOCTYPE svg PUBLIC "-//W3C//DTD SVG 1.1//EN" "http://www.w3.org/Graphics/SVG/1.1/DTD/svg11.dtd"><svg t="1742970494288" class="icon" viewBox="0 0 1024 1024" version="1.1" xmlns="http://www.w3.org/2000/svg" p-id="7053" data-darkreader-inline-fill="" xmlns:xlink="http://www.w3.org/1999/xlink" width="200" height="200"><path d="M622.24 959.41A51.58 51.58 0 0 1 574 926.65L437.44 584a52 52 0 0 1 11-55.48l211.9-218.11A36 36 0 1 1 712 360.56L509.12 569.37 621.3 850.91l250.25-697.73-696.76 246.31 176.83 68.84a36 36 0 1 1-26.13 67.09L98.47 447a52 52 0 0 1 1.53-97.44L903.15 65.65A44 44 0 0 1 959.23 122l-288 803a51.62 51.62 0 0 1-48.05 34.44z" p-id="7054"></path></svg>