<?xml version="1.0" standalone="no"?><!DOCTYPE svg PUBLIC "-//W3C//DTD SVG 1.1//EN" "http://www.w3.org/Graphics/SVG/1.1/DTD/svg11.dtd"><svg t="1744129440815" class="icon" viewBox="0 0 1024 1024" version="1.1" xmlns="http://www.w3.org/2000/svg" p-id="8886" data-darkreader-inline-fill="" xmlns:xlink="http://www.w3.org/1999/xlink" width="200" height="200"><path d="M443.733333 294.4m-81.066666 0a81.066667 81.066667 0 1 0 162.133333 0 81.066667 81.066667 0 1 0-162.133333 0Z" p-id="8887" fill="#2a7afa" data-darkreader-inline-fill="" style="--darkreader-inline-fill: var(--darkreader-text-2a7afa, #389bfa);"></path><path d="M294.4 486.4m-81.066667 0a81.066667 81.066667 0 1 0 162.133334 0 81.066667 81.066667 0 1 0-162.133334 0Z" p-id="8888" fill="#2a7afa" data-darkreader-inline-fill="" style="--darkreader-inline-fill: var(--darkreader-text-2a7afa, #389bfa);"></path><path d="M699.733333 337.066667m-81.066666 0a81.066667 81.066667 0 1 0 162.133333 0 81.066667 81.066667 0 1 0-162.133333 0Z" p-id="8889" fill="#2a7afa" data-darkreader-inline-fill="" style="--darkreader-inline-fill: var(--darkreader-text-2a7afa, #389bfa);"></path><path d="M742.4 593.066667m-81.066667 0a81.066667 81.066667 0 1 0 162.133334 0 81.066667 81.066667 0 1 0-162.133334 0Z" p-id="8890" fill="#2a7afa" data-darkreader-inline-fill="" style="--darkreader-inline-fill: var(--darkreader-text-2a7afa, #389bfa);"></path><path d="M512 42.666667C253.866667 42.666667 40.533333 253.866667 53.333333 514.133333c2.133333 66.133333 21.333333 119.466667 55.466667 162.133334s83.2 68.266667 138.666667 78.933333c29.866667 6.4 61.866667 6.4 87.466666 2.133333 17.066667-2.133333 34.133333-4.266667 49.066667-8.533333 8.533333-2.133333 14.933333-2.133333 21.333333-4.266667 21.333333-4.266667 34.133333-4.266667 40.533334-2.133333 2.133333 0 4.266667 0 6.4 6.4 2.133333 4.266667 2.133333 10.666667-2.133334 21.333333s-12.8 21.333333-23.466666 36.266667c-2.133333 2.133333-2.133333 4.266667-4.266667 6.4-10.666667 14.933333-25.6 38.4-32 64-2.133333 14.933333-4.266667 29.866667 2.133333 44.8 4.266667 14.933333 14.933333 29.866667 25.6 42.666667 17.066667 17.066667 42.666667 25.6 64 27.733333 23.466667 2.133333 49.066667 2.133333 76.8-2.133333 55.466667-8.533333 119.466667-32 181.333334-68.266667C864 853.333333 981.333333 716.8 981.333333 512c0-260.266667-209.066667-469.333333-469.333333-469.333333z m183.466667 810.666666c-53.333333 32-106.666667 49.066667-151.466667 57.6-21.333333 4.266667-40.533333 4.266667-53.333333 2.133334-10.666667-2.133333-12.8-2.133333-14.933334-4.266667-4.266667-4.266667-4.266667-6.4-4.266666-6.4v-2.133333c2.133333-6.4 6.4-17.066667 19.2-34.133334 2.133333-2.133333 2.133333-4.266667 4.266666-6.4 10.666667-14.933333 23.466667-32 32-53.333333 10.666667-23.466667 17.066667-55.466667 2.133334-87.466667-12.8-32-36.266667-51.2-66.133334-57.6-25.6-6.4-51.2-2.133333-74.666666 0-10.666667 2.133333-19.2 2.133333-27.733334 4.266667-12.8 2.133333-25.6 4.266667-40.533333 6.4-21.333333 2.133333-40.533333 2.133333-57.6 0-40.533333-8.533333-70.4-25.6-89.6-51.2-19.2-23.466667-34.133333-59.733333-36.266667-113.066667C130.133333 300.8 298.666667 128 512 128c211.2 0 384 172.8 384 384 0 168.533333-96 277.333333-200.533333 341.333333z" p-id="8891" fill="#2a7afa" data-darkreader-inline-fill="" style="--darkreader-inline-fill: var(--darkreader-background-2a7afa, #0447b2);"></path></svg>