<?xml version="1.0" standalone="no"?><!DOCTYPE svg PUBLIC "-//W3C//DTD SVG 1.1//EN" "http://www.w3.org/Graphics/SVG/1.1/DTD/svg11.dtd">
<svg width="24" height="24" viewBox="0 0 24 24" version="1.1" xmlns="http://www.w3.org/2000/svg" xmlns:xlink="http://www.w3.org/1999/xlink">
  <path d="M12 2C12.5523 2 13 2.44772 13 3V4H14C15.6569 4 17 5.34315 17 7V8H18C19.6569 8 21 9.34315 21 11V17C21 18.6569 19.6569 20 18 20H6C4.34315 20 3 18.6569 3 17V11C3 9.34315 4.34315 8 6 8H7V7C7 5.34315 8.34315 4 10 4H11V3C11 2.44772 11.4477 2 12 2Z" stroke="#FFFFFF" stroke-width="1.5" stroke-linecap="round" stroke-linejoin="round" fill="none"/>
  <path d="M9 13C9 12.4477 8.55228 12 8 12C7.44772 12 7 12.4477 7 13C7 13.5523 7.44772 14 8 14C8.55228 14 9 13.5523 9 13Z" fill="#FFFFFF"/>
  <path d="M17 13C17 12.4477 16.5523 12 16 12C15.4477 12 15 12.4477 15 13C15 13.5523 15.4477 14 16 14C16.5523 14 17 13.5523 17 13Z" fill="#FFFFFF"/>
  <path d="M12 16C10.8954 16 10 15.1046 10 14H14C14 15.1046 13.1046 16 12 16Z" stroke="#FFFFFF" stroke-width="1.5" stroke-linecap="round" stroke-linejoin="round" fill="none"/>
</svg>
