<?xml version="1.0" standalone="no"?><!DOCTYPE svg PUBLIC "-//W3C//DTD SVG 1.1//EN" "http://www.w3.org/Graphics/SVG/1.1/DTD/svg11.dtd"><svg t="1744128789644" class="icon" viewBox="0 0 1024 1024" version="1.1" xmlns="http://www.w3.org/2000/svg" p-id="7174" data-darkreader-inline-fill="" xmlns:xlink="http://www.w3.org/1999/xlink" width="200" height="200"><path d="M938.666667 384v64.170667a21.333333 21.333333 0 0 1-21.333334 21.333333h-42.666666a21.333333 21.333333 0 0 1-21.333334-21.333333V405.333333a21.333333 21.333333 0 0 0-21.333333-21.333333h-640a21.333333 21.333333 0 0 0-21.333333 21.333333v426.666667a21.333333 21.333333 0 0 0 21.333333 21.333333h257.834667a21.333333 21.333333 0 0 1 21.333333 21.333334v42.666666a21.333333 21.333333 0 0 1-21.333333 21.333334H106.666667a21.333333 21.333333 0 0 1-21.333334-21.333334V170.666667a85.333333 85.333333 0 0 1 85.333334-85.333334h682.666666a85.333333 85.333333 0 0 1 85.333334 85.333334v213.333333z m-106.666667-85.333333a21.333333 21.333333 0 0 0 21.333333-21.333334v-85.333333a21.333333 21.333333 0 0 0-21.333333-21.333333h-640a21.333333 21.333333 0 0 0-21.333333 21.333333v85.333333a21.333333 21.333333 0 0 0 21.333333 21.333334h640z m-275.797333 502.229333H512a42.666667 42.666667 0 0 1-42.666667-42.666667v-85.333333a42.666667 42.666667 0 0 1 42.666667-42.666667h45.397333l-22.314666-38.613333a42.666667 42.666667 0 0 1 15.616-58.282667l73.898666-42.666666a42.666667 42.666667 0 0 1 58.282667 15.616l21.717333 37.589333 21.504-37.248a42.666667 42.666667 0 0 1 58.282667-15.616l73.898667 42.666667a42.666667 42.666667 0 0 1 15.616 58.282666l-22.101334 38.272H896a42.666667 42.666667 0 0 1 42.666667 42.666667v85.333333a42.666667 42.666667 0 0 1-42.666667 42.666667h-43.008l21.888 37.973333a42.666667 42.666667 0 0 1-15.616 58.24l-73.898667 42.666667a42.666667 42.666667 0 0 1-58.282666-15.616l-22.485334-38.954667-22.698666 39.296a42.666667 42.666667 0 0 1-58.282667 15.616l-73.898667-42.666666a42.666667 42.666667 0 0 1-15.616-58.282667l22.101334-38.272z m146.773333 42.666667a128 128 0 1 0 0-256 128 128 0 0 0 0 256z m0.853333-21.333334a106.666667 106.666667 0 1 1 0-213.333333 106.666667 106.666667 0 0 1 0 213.333333z m0-42.666666a64 64 0 1 0 0-128 64 64 0 0 0 0 128zM213.333333 213.333333h42.666667v42.666667H213.333333V213.333333z m85.333334 0h42.666666v42.666667H298.666667V213.333333z m85.333333 0h42.666667v42.666667H384V213.333333z m85.333333 0h42.666667v42.666667h-42.666667V213.333333z" fill="#007AFF" p-id="7175" data-darkreader-inline-fill="" style="--darkreader-inline-fill: var(--darkreader-background-007aff, #0062cc);"></path></svg>