<?xml version="1.0" standalone="no"?><!DOCTYPE svg PUBLIC "-//W3C//DTD SVG 1.1//EN" "http://www.w3.org/Graphics/SVG/1.1/DTD/svg11.dtd"><svg t="1744360864997" class="icon" viewBox="0 0 1024 1024" version="1.1" xmlns="http://www.w3.org/2000/svg" p-id="6090" data-darkreader-inline-fill="" xmlns:xlink="http://www.w3.org/1999/xlink" width="200" height="200"><path d="M100.352 138.24a24.603648 24.603648 0 0 0-24.576 24.576v698.368a24.603648 24.603648 0 0 0 24.576 24.576h823.296a24.603648 24.603648 0 0 0 24.576-24.576V162.816a24.603648 24.603648 0 0 0-24.576-24.576H100.352m0-75.776h823.296a100.352 100.352 0 0 1 100.352 100.352v698.368a100.352 100.352 0 0 1-100.352 100.352H100.352a100.352 100.352 0 0 1-100.352-100.352V162.816a100.352 100.352 0 0 1 100.352-100.352z" p-id="6091" fill="#dddddd" data-darkreader-inline-fill="" style="--darkreader-inline-fill: var(--darkreader-background-dddddd, #2b2f31);"></path><path d="M298.665984 717.507584l-71.110656-71.110656 111.192064-111.197184-111.192064-111.833088 71.110656-71.757824L481.615872 534.55872z m206.86848-80.161792h290.910208v100.84864H505.535488z" p-id="6092" fill="#dddddd" data-darkreader-inline-fill="" style="--darkreader-inline-fill: var(--darkreader-background-dddddd, #2b2f31);"></path></svg>